<?xml version="1.0" encoding="utf-8"?>
<!-- Generator: Adobe Illustrator 16.0.0, SVG Export Plug-In . SVG Version: 6.00 Build 0)  -->
<!DOCTYPE svg PUBLIC "-//W3C//DTD SVG 1.1//EN" "http://www.w3.org/Graphics/SVG/1.1/DTD/svg11.dtd">
<svg version="1.1" id="Layer_1" xmlns="http://www.w3.org/2000/svg" xmlns:xlink="http://www.w3.org/1999/xlink" x="0px" y="0px"
	 width="612px" height="792px" viewBox="0 0 612 792" enable-background="new 0 0 612 792" xml:space="preserve">
<g>
	<g>
		<path fill-rule="evenodd" clip-rule="evenodd" fill="none" d="M577.788,705.923c-179.871,0-359.81,0-539.769,0
			c0-205.584,0-411.167,0-616.836c179.861,0,359.743,0,539.769,0C577.788,294.641,577.788,500.281,577.788,705.923z M347.963,95.789
			c-7.791,7.567-15.146,14.553-22.328,21.712c-38.223,38.101-76.412,76.235-114.596,114.375
			c-55.042,54.979-110.064,109.976-165.107,164.952c-4.039,4.034-4.027,5.286,0.062,9.365c30.306,30.236,60.604,60.482,90.88,90.749
			c66.807,66.784,133.598,133.583,200.409,200.364c0.951,0.951,2.071,1.735,3.443,2.872c0.11-1.495,0.226-2.323,0.226-3.151
			c0.011-50.494,0.059-100.987-0.137-151.48c-0.009-2.421-1.64-5.375-3.428-7.171c-43.508-43.69-87.139-87.258-130.75-130.845
			c-4.909-4.905-5.024-7.08-0.479-11.623c46.083-46.065,92.146-92.149,138.325-138.119c2.612-2.601,3.552-5.143,3.545-8.718
			c-0.096-49.328-0.064-98.654-0.064-147.981C347.963,99.455,347.963,97.819,347.963,95.789z M360.951,275.219
			c0,0.59,0,1.531,0,2.471c0.002,36.967,0.131,73.934-0.109,110.898c-0.043,6.569,1.318,11.251,6.471,16.137
			c19.448,18.448,38.156,37.677,57.149,56.604c3.688,3.675,3.765,9.731,0.008,13.598c-20.023,20.609-40.14,41.129-60.011,61.885
			c-1.921,2.006-3.344,5.417-3.355,8.182c-0.198,49.974-0.145,99.949-0.145,149.923c0,1.531,0,3.063,0,4.596
			c0.479,0.169,0.958,0.339,1.438,0.509c34.853-35.609,69.306-71.621,104.672-106.714c35.336-35.063,71.587-69.206,107.72-104.024
			C503.307,417.726,432.163,346.506,360.951,275.219z"/>
		<path fill-rule="evenodd" clip-rule="evenodd" fill="#454444" d="M347.963,95.789c0,2.03,0,3.666,0,5.302
			c0,49.327-0.031,98.654,0.064,147.981c0.007,3.575-0.933,6.117-3.545,8.718c-46.179,45.969-92.243,92.054-138.325,138.119
			c-4.544,4.542-4.43,6.717,0.479,11.623c43.611,43.587,87.242,87.154,130.75,130.845c1.788,1.796,3.419,4.75,3.428,7.171
			c0.195,50.493,0.147,100.986,0.137,151.48c0,0.828-0.115,1.656-0.226,3.151c-1.372-1.137-2.492-1.921-3.443-2.872
			c-66.811-66.781-133.602-133.58-200.409-200.364c-30.276-30.267-60.574-60.513-90.88-90.749c-4.089-4.079-4.101-5.331-0.062-9.365
			c55.043-54.977,110.066-109.974,165.107-164.952c38.184-38.14,76.373-76.274,114.596-114.375
			C332.817,110.341,340.172,103.355,347.963,95.789z"/>
		<path fill-rule="evenodd" clip-rule="evenodd" fill="#454444" d="M360.951,275.219c71.212,71.288,142.355,142.507,213.838,214.064
			c-36.133,34.818-72.384,68.961-107.72,104.024c-35.366,35.093-69.819,71.104-104.672,106.714c-0.48-0.17-0.96-0.34-1.438-0.509
			c0-1.532,0-3.064,0-4.596c0-49.974-0.054-99.949,0.145-149.923c0.012-2.765,1.435-6.176,3.355-8.182
			c19.871-20.756,39.987-41.275,60.011-61.885c3.757-3.866,3.681-9.923-0.008-13.598c-18.993-18.928-37.701-38.156-57.149-56.604
			c-5.152-4.886-6.514-9.568-6.471-16.137c0.24-36.964,0.111-73.932,0.109-110.898C360.951,276.75,360.951,275.809,360.951,275.219z
			"/>
	</g>
</g>
</svg>
