<?xml version="1.0" encoding="utf-8"?>
<!-- Generator: Adobe Illustrator 16.0.0, SVG Export Plug-In . SVG Version: 6.00 Build 0)  -->
<!DOCTYPE svg PUBLIC "-//W3C//DTD SVG 1.1//EN" "http://www.w3.org/Graphics/SVG/1.1/DTD/svg11.dtd">
<svg version="1.1" id="Layer_1" xmlns="http://www.w3.org/2000/svg" xmlns:xlink="http://www.w3.org/1999/xlink" x="0px" y="0px"
	 width="403.411px" height="567.377px" viewBox="0 0 403.411 567.377" enable-background="new 0 0 403.411 567.377"
	 xml:space="preserve">
<g>
	<path fill="#FCEE1E" d="M84.456,412.716h14.401c10.369,0,17.209,4.465,17.209,13.609s-6.985,13.682-17.354,13.682H89.64v23.689
		h-5.185V412.716z M89.64,435.614h8.785c8.064,0,12.457-3.24,12.457-9.289c0-6.265-4.608-9.145-12.457-9.145H89.64V435.614z"/>
	<path fill="#FCEE1E" d="M122.183,429.997h4.681c0.144,1.801,0.288,4.32,0.288,5.761h0.144c1.872-3.888,6.048-6.624,10.801-6.624
		c1.224,0,2.232,0.071,3.24,0.359l-0.648,4.608c-0.576-0.216-2.16-0.432-3.457-0.432c-5.184,0-9.865,3.744-9.865,12.745v17.281
		h-4.896v-26.282C122.471,435.614,122.399,432.302,122.183,429.997z"/>
	<path fill="#FCEE1E" d="M162.576,464.561c-10.441,0-17.93-7.562-17.93-17.714s7.489-17.713,17.93-17.713
		c10.513,0,18.001,7.561,18.001,17.713S173.089,464.561,162.576,464.561z M162.576,433.237c-7.777,0-12.745,6.049-12.745,13.609
		s4.968,13.537,12.745,13.537c7.849,0,12.817-5.977,12.817-13.537S170.425,433.237,162.576,433.237z"/>
	<path fill="#FCEE1E" d="M215.353,437.702c-1.584-2.592-4.968-4.465-8.641-4.465c-7.849,0-12.889,5.904-12.889,13.609
		c0,7.633,4.968,13.537,12.817,13.537c4.249,0,7.201-1.8,9.145-4.393l3.673,2.736c-2.881,3.529-6.985,5.833-12.818,5.833
		c-10.873,0-18.001-7.562-18.001-17.714s7.129-17.713,18.001-17.713c4.537,0,9.649,1.943,12.529,5.832L215.353,437.702z"/>
	<path fill="#FCEE1E" d="M257.689,448.144H229.75c0.145,6.768,5.4,12.24,12.313,12.24c5.04,0,8.929-2.809,10.801-5.832l3.673,2.88
		c-3.961,5.04-8.93,7.129-14.474,7.129c-10.009,0-17.426-7.562-17.426-17.714s7.417-17.713,16.993-17.713
		c10.586,0,16.13,7.488,16.13,16.705C257.761,446.487,257.761,447.278,257.689,448.144z M252.793,444.255
		c-0.289-6.337-4.178-11.018-11.162-11.018c-6.553,0-11.377,5.257-11.809,11.018H252.793z"/>
	<path fill="#FCEE1E" d="M286.2,437.99c-1.44-2.809-4.537-4.753-8.281-4.753c-3.528,0-7.129,1.513-7.129,5.257
		c0,3.169,2.521,4.608,8.064,5.761c7.922,1.656,11.666,4.607,11.666,9.865c0,7.704-6.48,10.44-12.674,10.44
		c-5.112,0-10.225-2.017-13.32-6.553l3.888-2.88c1.728,2.951,5.4,5.256,9.36,5.256c4.177,0,7.922-1.512,7.922-5.904
		c0-3.528-3.529-4.969-9.938-6.48c-3.961-0.936-9.648-2.664-9.648-9.072c0-6.842,5.904-9.793,12.024-9.793
		c4.681,0,9.649,2.232,11.81,6.048L286.2,437.99z"/>
	<path fill="#FCEE1E" d="M318.167,437.99c-1.439-2.809-4.537-4.753-8.281-4.753c-3.527,0-7.128,1.513-7.128,5.257
		c0,3.169,2.521,4.608,8.064,5.761c7.921,1.656,11.665,4.607,11.665,9.865c0,7.704-6.48,10.44-12.673,10.44
		c-5.112,0-10.226-2.017-13.321-6.553l3.889-2.88c1.728,2.951,5.4,5.256,9.36,5.256c4.177,0,7.921-1.512,7.921-5.904
		c0-3.528-3.528-4.969-9.938-6.48c-3.96-0.936-9.648-2.664-9.648-9.072c0-6.842,5.904-9.793,12.025-9.793
		c4.68,0,9.648,2.232,11.809,6.048L318.167,437.99z"/>
	<path fill="#FCEE1E" d="M11.953,545.488h27.29v4.608H6.769v-50.98h31.611v4.608H11.953v17.569h24.698v4.537H11.953V545.488z"/>
	<path fill="#FCEE1E" d="M53.497,516.397c0.144,1.801,0.288,4.32,0.288,5.761h0.144c1.872-3.889,6.769-6.624,11.521-6.624
		c8.568,0,12.817,5.544,12.817,13.896v20.666H73.37v-18.649c0-7.057-2.088-11.81-9.145-11.81c-5.185,0-10.225,4.177-10.225,13.178
		v17.281h-4.896v-26.282c0-1.8-0.072-5.112-0.288-7.417H53.497z"/>
	<path fill="#FCEE1E" d="M92.736,556.865c2.664,3.456,7.777,6.192,12.889,6.192c9.649,0,13.177-5.977,13.177-13.249v-6.337h-0.144
		c-2.592,4.177-7.849,6.625-12.745,6.625c-10.513,0-17.426-7.272-17.426-17.138c0-9.576,6.913-17.425,17.426-17.425
		c4.896,0,10.081,2.376,12.745,6.696h0.144v-5.833h4.896v33.411c0,7.345-3.384,17.569-18.29,17.569
		c-6.192,0-12.241-2.592-16.201-6.769L92.736,556.865z M106.417,545.92c7.561,0,12.961-5.328,12.961-13.104
		c0-7.057-5.4-13.178-12.961-13.178c-8.137,0-12.745,6.121-12.745,13.178S98.28,545.92,106.417,545.92z"/>
	<path fill="#FCEE1E" d="M138.959,506.893c-1.729,0-3.457-1.439-3.457-3.456c0-2.016,1.728-3.456,3.457-3.456
		c1.728,0,3.456,1.44,3.456,3.456C142.416,505.453,140.688,506.893,138.959,506.893z M141.408,550.097h-4.896v-33.699h4.896V550.097
		z"/>
	<path fill="#FCEE1E" d="M158.832,516.397c0.144,1.801,0.288,4.32,0.288,5.761h0.144c1.872-3.889,6.769-6.624,11.521-6.624
		c8.568,0,12.817,5.544,12.817,13.896v20.666h-4.896v-18.649c0-7.057-2.088-11.81-9.145-11.81c-5.185,0-10.225,4.177-10.225,13.178
		v17.281h-4.896v-26.282c0-1.8-0.072-5.112-0.288-7.417H158.832z"/>
	<path fill="#FCEE1E" d="M226.874,534.543h-27.938c0.144,6.769,5.4,12.241,12.313,12.241c5.04,0,8.928-2.808,10.801-5.832
		l3.672,2.88c-3.961,5.041-8.929,7.129-14.473,7.129c-10.009,0-17.426-7.561-17.426-17.714c0-10.152,7.417-17.713,16.994-17.713
		c10.585,0,16.13,7.488,16.13,16.705C226.946,532.887,226.946,533.68,226.874,534.543z M221.977,530.655
		c-0.288-6.337-4.177-11.018-11.161-11.018c-6.553,0-11.377,5.257-11.809,11.018H221.977z"/>
	<path fill="#FCEE1E" d="M268.056,534.543h-27.938c0.145,6.769,5.4,12.241,12.313,12.241c5.04,0,8.929-2.808,10.801-5.832
		l3.673,2.88c-3.961,5.041-8.93,7.129-14.474,7.129c-10.009,0-17.426-7.561-17.426-17.714c0-10.152,7.417-17.713,16.993-17.713
		c10.586,0,16.13,7.488,16.13,16.705C268.128,532.887,268.128,533.68,268.056,534.543z M263.161,530.655
		c-0.289-6.337-4.178-11.018-11.162-11.018c-6.553,0-11.377,5.257-11.809,11.018H263.161z"/>
	<path fill="#FCEE1E" d="M278.349,516.397h4.681c0.145,1.801,0.288,4.32,0.288,5.761h0.144c1.873-3.889,6.049-6.624,10.801-6.624
		c1.225,0,2.232,0.071,3.24,0.359l-0.647,4.608c-0.576-0.216-2.16-0.432-3.456-0.432c-5.185,0-9.865,3.744-9.865,12.745v17.281
		h-4.896v-26.282C278.637,522.015,278.565,518.702,278.349,516.397z"/>
	<path fill="#FCEE1E" d="M307.077,506.893c-1.729,0-3.457-1.439-3.457-3.456c0-2.016,1.729-3.456,3.457-3.456
		s3.456,1.44,3.456,3.456C310.533,505.453,308.805,506.893,307.077,506.893z M309.525,550.097h-4.896v-33.699h4.896V550.097z"/>
	<path fill="#FCEE1E" d="M326.949,516.397c0.144,1.801,0.288,4.32,0.288,5.761h0.145c1.871-3.889,6.768-6.624,11.521-6.624
		c8.568,0,12.817,5.544,12.817,13.896v20.666h-4.896v-18.649c0-7.057-2.088-11.81-9.145-11.81c-5.186,0-10.226,4.177-10.226,13.178
		v17.281h-4.896v-26.282c0-1.8-0.071-5.112-0.288-7.417H326.949z"/>
	<path fill="#FCEE1E" d="M366.188,556.865c2.664,3.456,7.777,6.192,12.889,6.192c9.649,0,13.178-5.977,13.178-13.249v-6.337h-0.145
		c-2.592,4.177-7.848,6.625-12.744,6.625c-10.514,0-17.426-7.272-17.426-17.138c0-9.576,6.912-17.425,17.426-17.425
		c4.896,0,10.08,2.376,12.744,6.696h0.145v-5.833h4.896v33.411c0,7.345-3.385,17.569-18.29,17.569
		c-6.192,0-12.241-2.592-16.201-6.769L366.188,556.865z M379.87,545.92c7.561,0,12.961-5.328,12.961-13.104
		c0-7.057-5.4-13.178-12.961-13.178c-8.137,0-12.746,6.121-12.746,13.178S371.733,545.92,379.87,545.92z"/>
</g>
<g>
	<g>
		<g>
			<path fill="#FCEE1E" d="M334.842,245.3c-29.549-15.55-52.152-24.186-72.23-27.594l2.188-3.004
				c0.857-1.182,1.148-2.675,0.799-4.089l-4.576-18.289c12.254-17.279,19.494-38.864,19.494-59.331v-19.703h4.926h9.852
				c2.725,0,4.926-2.207,4.926-4.925c0-2.724-2.201-4.925-4.926-4.925h-4.924v-4.926c0-13.723-3.232-26.648-9.025-38.145
				l-44.229,8.502c-0.309,0.059-0.621,0.088-0.93,0.088c-1.291,0-2.547-0.512-3.479-1.438c-1.152-1.157-1.664-2.808-1.359-4.414
				l8.078-42.411c-4.172-1.876-8.531-3.502-13.092-4.797v-1.044C226.334,6.664,219.67,0,211.478,0h-19.54
				c-8.197,0-14.861,6.664-14.861,14.856V15.9c-4.556,1.296-8.915,2.921-13.087,4.797l8.078,42.411
				c0.305,1.605-0.207,3.256-1.359,4.414c-0.932,0.926-2.188,1.438-3.482,1.438c-0.312,0-0.622-0.029-0.932-0.088l-44.223-8.501
				c-5.792,11.497-9.028,24.422-9.028,38.145v4.926h-4.926c-2.719,0-4.926,2.202-4.926,4.926c0,2.718,2.207,4.925,4.926,4.925h9.852
				h4.926v19.703c0,20.466,7.246,42.051,19.496,59.331l-4.571,18.289c-0.354,1.414-0.06,2.907,0.798,4.089l2.188,3.004
				c-20.078,3.408-42.682,12.043-72.231,27.594c-9.029,4.748-14.64,14.042-14.64,24.254v21.062c0,2.719,2.207,4.925,4.925,4.925
				h118.218h0.005h1.842c0.005,0,0.005-0.004,0.011-0.004l45.336-0.039c0.078,0.004,0.143,0.045,0.221,0.045h120.061
				c2.725,0,4.926-2.207,4.926-4.926v-21.063C349.477,259.344,343.872,250.049,334.842,245.3z M132.745,132.994v-19.703h137.919
				v19.703c0,22.181-7.846,41.701-19.451,56.34c-0.172,0.167-0.398,0.271-0.547,0.463c-1.695,2.167-3.447,4.211-5.25,6.133
				c-0.01,0.01-0.021,0.02-0.029,0.029c-1.197,1.266-2.443,2.394-3.686,3.552c-12.039,10.856-26.337,17.221-39.997,17.221
				c-13.654,0-27.953-6.364-39.997-17.221c-1.236-1.157-2.482-2.286-3.68-3.552c-0.01-0.01-0.02-0.02-0.029-0.029
				c-1.803-1.92-3.561-3.965-5.255-6.133c-0.148-0.192-0.37-0.296-0.543-0.463C140.597,174.695,132.745,155.175,132.745,132.994z
				 M147.936,210.766l2.212-8.836c0.01,0.015,0.024,0.024,0.034,0.034c11.906,12.95,27.053,22.073,44.125,24.146
				c0.01,0,0.02,0.004,0.029,0.004l-13.369,30.071L147.936,210.766z M183.091,285.687l2.951-14.772h31.332l1.252,6.241l1.699,8.497
				L183.091,285.687z M222.448,256.187l-13.37-30.072c0.011,0,0.021-0.004,0.029-0.004c17.073-2.074,32.221-11.196,44.125-24.146
				c0.01-0.009,0.025-0.02,0.035-0.034l2.211,8.836L222.448,256.187z"/>
			<path fill="#FCEE1E" d="M248.543,25.479l-6.16,32.342l33.705-6.482C269.09,40.94,259.731,32.128,248.543,25.479z"/>
			<path fill="#FCEE1E" d="M154.87,25.479c-11.187,6.649-20.545,15.461-27.545,25.86l33.707,6.482L154.87,25.479z"/>
		</g>
	</g>
</g>
<g>
</g>
<g>
</g>
<g>
</g>
<g>
</g>
<g>
</g>
<g>
</g>
</svg>
