<svg height='300px' width='300px'  fill="#000000" xmlns:dc="http://purl.org/dc/elements/1.1/" xmlns:cc="http://creativecommons.org/ns#" xmlns:rdf="http://www.w3.org/1999/02/22-rdf-syntax-ns#" xmlns:svg="http://www.w3.org/2000/svg" xmlns="http://www.w3.org/2000/svg" xmlns:sodipodi="http://sodipodi.sourceforge.net/DTD/sodipodi-0.dtd" xmlns:inkscape="http://www.inkscape.org/namespaces/inkscape" viewBox="0 0 32 32.000001" version="1.1" x="0px" y="0px"><g transform="translate(0,-1020.3622)"><path style="color:#000000;font-style:normal;font-variant:normal;font-weight:normal;font-stretch:normal;font-size:medium;line-height:normal;font-family:sans-serif;text-indent:0;text-align:start;text-decoration:none;text-decoration-line:none;text-decoration-style:solid;text-decoration-color:#000000;letter-spacing:normal;word-spacing:normal;text-transform:none;direction:ltr;writing-mode:lr-tb;baseline-shift:baseline;text-anchor:start;white-space:normal;clip-rule:nonzero;display:inline;overflow:visible;visibility:visible;opacity:1;isolation:auto;mix-blend-mode:normal;color-interpolation:sRGB;color-interpolation-filters:linearRGB;solid-color:#000000;solid-opacity:1;fill:#000000;fill-opacity:1;fill-rule:evenodd;stroke:none;stroke-width:0.99999458;stroke-linecap:round;stroke-linejoin:round;stroke-miterlimit:4;stroke-dasharray:none;stroke-dashoffset:0;stroke-opacity:1;color-rendering:auto;image-rendering:auto;shape-rendering:auto;text-rendering:auto;enable-background:accumulate" d="m 15.9857,1044.8549 a 0.50004729,0.50004729 0 0 0 -0.4922,0.5058 l 0,5.4942 a 0.50004729,0.50004729 0 1 0 1,0 l 0,-5.4942 a 0.50004729,0.50004729 0 0 0 -0.5078,-0.5058 z"></path><path style="opacity:1;fill:#000000;fill-opacity:1;stroke:none;stroke-width:0.99999452;stroke-linecap:round;stroke-linejoin:round;stroke-miterlimit:4;stroke-dasharray:none;stroke-dashoffset:0;stroke-opacity:1" d="m 12.2435,1028.8616 0,15 7.5,0 0,-15 z"></path><path style="color:#000000;font-style:normal;font-variant:normal;font-weight:normal;font-stretch:normal;font-size:medium;line-height:normal;font-family:sans-serif;text-indent:0;text-align:start;text-decoration:none;text-decoration-line:none;text-decoration-style:solid;text-decoration-color:#000000;letter-spacing:normal;word-spacing:normal;text-transform:none;direction:ltr;writing-mode:lr-tb;baseline-shift:baseline;text-anchor:start;white-space:normal;clip-rule:nonzero;display:inline;overflow:visible;visibility:visible;opacity:1;isolation:auto;mix-blend-mode:normal;color-interpolation:sRGB;color-interpolation-filters:linearRGB;solid-color:#000000;solid-opacity:1;fill:#000000;fill-opacity:1;fill-rule:evenodd;stroke:none;stroke-width:0.99999458;stroke-linecap:round;stroke-linejoin:round;stroke-miterlimit:4;stroke-dasharray:none;stroke-dashoffset:0;stroke-opacity:1;color-rendering:auto;image-rendering:auto;shape-rendering:auto;text-rendering:auto;enable-background:accumulate" d="m 15.9857,1021.3627 a 0.50004729,0.50004729 0 0 0 -0.4922,0.5058 l 0,5.4922 a 0.50004729,0.50004729 0 1 0 1,0 l 0,-5.4922 a 0.50004729,0.50004729 0 0 0 -0.5078,-0.5058 z"></path><path d="m 20.969962,1026.3881 c 0.60376,0.067 1.192289,0.2971 1.726563,0.6699 1.068548,0.7455 1.955666,2.0212 2.587891,3.7129 1.264448,3.3834 1.268436,7.7662 0.0098,11.1562 -0.629335,1.6951 -1.513417,2.9774 -2.580078,3.7285 -1.06666,0.7512 -2.354428,0.9306 -3.541015,0.3868 a 0.50038298,0.50038298 0 0 1 0.416015,-0.9102 c 0.881366,0.4039 1.712297,0.2942 2.548828,-0.2949 0.836531,-0.5891 1.639577,-1.6979 2.21875,-3.2578 1.158347,-3.1199 1.155469,-7.3443 -0.0078,-10.4571 -0.581641,-1.5563 -1.387768,-2.6602 -2.22461,-3.2441 -0.836841,-0.5839 -1.667433,-0.6905 -2.548828,-0.2812 a 0.5000472,0.5000472 0 1 1 -0.419922,-0.9063 c 0.592494,-0.2751 1.210694,-0.3701 1.814453,-0.3027 z" style="color:#000000;font-style:normal;font-variant:normal;font-weight:normal;font-stretch:normal;font-size:medium;line-height:normal;font-family:sans-serif;text-indent:0;text-align:start;text-decoration:none;text-decoration-line:none;text-decoration-style:solid;text-decoration-color:#000000;letter-spacing:normal;word-spacing:normal;text-transform:none;direction:ltr;writing-mode:lr-tb;baseline-shift:baseline;text-anchor:start;white-space:normal;clip-rule:nonzero;display:inline;overflow:visible;visibility:visible;opacity:1;isolation:auto;mix-blend-mode:normal;color-interpolation:sRGB;color-interpolation-filters:linearRGB;solid-color:#000000;solid-opacity:1;fill:#000000;fill-opacity:1;fill-rule:nonzero;stroke:none;stroke-width:0.9999944;stroke-linecap:round;stroke-linejoin:round;stroke-miterlimit:4;stroke-dasharray:none;stroke-dashoffset:0;stroke-opacity:1;color-rendering:auto;image-rendering:auto;shape-rendering:auto;text-rendering:auto;enable-background:accumulate"></path><path d="m 21.143791,1023.5404 c 0.918393,-0.2611 1.858385,-0.24 2.757812,0.064 1.798855,0.609 3.387472,2.271 4.515625,4.7832 2.256307,5.0243 2.097736,12.0509 -0.394531,16.7519 -1.246134,2.3505 -2.926953,3.7988 -4.761719,4.1485 -1.834766,0.3496 -3.737701,-0.4543 -5.263672,-2.3106 a 0.50014398,0.50014398 0 1 1 0.771485,-0.6367 c 1.363361,1.6585 2.861823,2.2398 4.304687,1.9648 1.442864,-0.2749 2.915048,-1.461 4.066406,-3.6328 2.302716,-4.3434 2.468108,-11.1923 0.365235,-15.875 -1.051437,-2.3413 -2.485044,-3.759 -3.923828,-4.2461 -1.438785,-0.4871 -2.929309,-0.1258 -4.351563,1.3164 a 0.50004726,0.50004726 0 1 1 -0.710937,-0.7031 c 0.810236,-0.8216 1.706606,-1.3639 2.625,-1.625 z" style="color:#000000;font-style:normal;font-variant:normal;font-weight:normal;font-stretch:normal;font-size:medium;line-height:normal;font-family:sans-serif;text-indent:0;text-align:start;text-decoration:none;text-decoration-line:none;text-decoration-style:solid;text-decoration-color:#000000;letter-spacing:normal;word-spacing:normal;text-transform:none;direction:ltr;writing-mode:lr-tb;baseline-shift:baseline;text-anchor:start;white-space:normal;clip-rule:nonzero;display:inline;overflow:visible;visibility:visible;opacity:1;isolation:auto;mix-blend-mode:normal;color-interpolation:sRGB;color-interpolation-filters:linearRGB;solid-color:#000000;solid-opacity:1;fill:#000000;fill-opacity:1;fill-rule:nonzero;stroke:none;stroke-width:0.99999452;stroke-linecap:round;stroke-linejoin:round;stroke-miterlimit:4;stroke-dasharray:none;stroke-dashoffset:0;stroke-opacity:1;color-rendering:auto;image-rendering:auto;shape-rendering:auto;text-rendering:auto;enable-background:accumulate"></path><path d="m 11.030038,1026.3881 c -0.60376,0.067 -1.192289,0.2971 -1.726563,0.6699 -1.068548,0.7455 -1.955666,2.0212 -2.587891,3.7129 -1.264448,3.3834 -1.268436,7.7662 -0.0098,11.1562 0.629335,1.6951 1.513417,2.9774 2.580078,3.7285 1.06666,0.7512 2.354428,0.9306 3.541015,0.3868 a 0.50038298,0.50038298 0 0 0 -0.416015,-0.9102 c -0.881366,0.4039 -1.712297,0.2942 -2.548828,-0.2949 -0.836531,-0.5891 -1.639577,-1.6979 -2.21875,-3.2578 -1.158347,-3.1199 -1.155469,-7.3443 0.0078,-10.4571 0.581641,-1.5563 1.387768,-2.6602 2.22461,-3.2441 0.836841,-0.5839 1.667433,-0.6905 2.548828,-0.2812 a 0.5000472,0.5000472 0 1 0 0.419922,-0.9063 c -0.592494,-0.2751 -1.210694,-0.3701 -1.814453,-0.3027 z" style="color:#000000;font-style:normal;font-variant:normal;font-weight:normal;font-stretch:normal;font-size:medium;line-height:normal;font-family:sans-serif;text-indent:0;text-align:start;text-decoration:none;text-decoration-line:none;text-decoration-style:solid;text-decoration-color:#000000;letter-spacing:normal;word-spacing:normal;text-transform:none;direction:ltr;writing-mode:lr-tb;baseline-shift:baseline;text-anchor:start;white-space:normal;clip-rule:nonzero;display:inline;overflow:visible;visibility:visible;opacity:1;isolation:auto;mix-blend-mode:normal;color-interpolation:sRGB;color-interpolation-filters:linearRGB;solid-color:#000000;solid-opacity:1;fill:#000000;fill-opacity:1;fill-rule:nonzero;stroke:none;stroke-width:0.9999944;stroke-linecap:round;stroke-linejoin:round;stroke-miterlimit:4;stroke-dasharray:none;stroke-dashoffset:0;stroke-opacity:1;color-rendering:auto;image-rendering:auto;shape-rendering:auto;text-rendering:auto;enable-background:accumulate"></path><path d="m 10.856209,1023.5404 c -0.918393,-0.2611 -1.858385,-0.24 -2.757812,0.064 -1.798855,0.609 -3.387472,2.271 -4.515625,4.7832 -2.256307,5.0243 -2.097736,12.0509 0.394531,16.7519 1.246134,2.3505 2.926953,3.7988 4.761719,4.1485 1.834766,0.3496 3.737701,-0.4543 5.263672,-2.3106 a 0.50014398,0.50014398 0 1 0 -0.771485,-0.6367 c -1.363361,1.6585 -2.861823,2.2398 -4.304687,1.9648 -1.442864,-0.2749 -2.915048,-1.461 -4.066406,-3.6328 -2.302716,-4.3434 -2.468108,-11.1923 -0.365235,-15.875 1.051437,-2.3413 2.485044,-3.759 3.923828,-4.2461 1.438785,-0.4871 2.929309,-0.1258 4.351563,1.3164 a 0.50004726,0.50004726 0 1 0 0.710937,-0.7031 c -0.810236,-0.8216 -1.706606,-1.3639 -2.625,-1.625 z" style="color:#000000;font-style:normal;font-variant:normal;font-weight:normal;font-stretch:normal;font-size:medium;line-height:normal;font-family:sans-serif;text-indent:0;text-align:start;text-decoration:none;text-decoration-line:none;text-decoration-style:solid;text-decoration-color:#000000;letter-spacing:normal;word-spacing:normal;text-transform:none;direction:ltr;writing-mode:lr-tb;baseline-shift:baseline;text-anchor:start;white-space:normal;clip-rule:nonzero;display:inline;overflow:visible;visibility:visible;opacity:1;isolation:auto;mix-blend-mode:normal;color-interpolation:sRGB;color-interpolation-filters:linearRGB;solid-color:#000000;solid-opacity:1;fill:#000000;fill-opacity:1;fill-rule:nonzero;stroke:none;stroke-width:0.99999452;stroke-linecap:round;stroke-linejoin:round;stroke-miterlimit:4;stroke-dasharray:none;stroke-dashoffset:0;stroke-opacity:1;color-rendering:auto;image-rendering:auto;shape-rendering:auto;text-rendering:auto;enable-background:accumulate"></path></g></svg>