<svg height='300px' width='300px'  fill="#000000" xmlns="http://www.w3.org/2000/svg" xmlns:xlink="http://www.w3.org/1999/xlink" version="1.1" x="0px" y="0px" viewBox="0 0 164 164" enable-background="new 0 0 164 164" xml:space="preserve"><g><g><path d="M55.7,148h23.1c0.5,0,1-0.4,1-1c0-0.5-0.4-1-1-1H55.7c-0.5,0-1,0.4-1,1C54.7,147.6,55.2,148,55.7,148z"></path></g><g><path d="M82.5,148h3.8c0.5,0,1-0.4,1-1c0-0.5-0.4-1-1-1h-3.8c-0.5,0-1,0.4-1,1C81.6,147.6,82,148,82.5,148z"></path></g><g><path d="M89.6,148h2.5c0.5,0,1-0.4,1-1c0-0.5-0.4-1-1-1h-2.5c-0.5,0-1,0.4-1,1C88.7,147.6,89.1,148,89.6,148z"></path></g><g><path d="M84.2,151.7c0,0.5,0.4,1,1,1h23.1c0.5,0,1-0.4,1-1c0-0.5-0.4-1-1-1H85.2C84.6,150.7,84.2,151.2,84.2,151.7z"></path></g><g><path d="M76.7,151.7c0,0.5,0.4,1,1,1h3.8c0.5,0,1-0.4,1-1c0-0.5-0.4-1-1-1h-3.8C77.1,150.7,76.7,151.2,76.7,151.7z"></path></g><g><path d="M74.4,150.7h-2.5c-0.5,0-1,0.4-1,1c0,0.5,0.4,1,1,1h2.5c0.5,0,1-0.4,1-1C75.3,151.2,74.9,150.7,74.4,150.7z"></path></g><g><path d="M151.6,119.5c5.2-10.6,7.8-22,7.8-33.9c0-11.9-2.6-23.3-7.8-33.8V30.9c0-7.3-5.9-13.2-13.2-13.2c-0.5,0-1,0.4-1,1v13    c-10.3-10.6-23.3-18-37.8-21.4c-3.5-5-9-8.5-15.2-9.2c-6.2-0.7-12.2,1.2-16.8,5.4c-1.3,1.1-2.4,2.4-3.3,3.8    C49.9,13.7,36.9,21,26.5,31.7v-13c0-0.5-0.4-1-1-1c-7.3,0-13.2,5.9-13.2,13.2v20.9c-5.2,10.6-7.8,22-7.8,33.8    c0,11.9,2.6,23.3,7.8,33.9v8.6c0,0,0,0,0,0c0,7.3,5.9,13.2,13.2,13.2h2.6C42.7,155.3,61.8,163,82,163c20.2,0,39.3-7.7,53.8-21.8    h2.6c7.3,0,13.2-5.9,13.2-13.2c0,0,0,0,0,0V119.5z M157.5,85.6c0,10.2-2,20-5.9,29.2V56.4C155.5,65.6,157.5,75.4,157.5,85.6z     M149.7,30.9c0,15.8,0,90,0,90.3c-2.2-3.5-5.9-6-10.3-6.3c0-20.3,0-74.5,0-95.2C145.1,20.2,149.7,25,149.7,30.9z M137,34h-36.8    c2.6-4.1,3.7-8.9,3.2-13.8c-0.3-2.7-1.1-5.2-2.3-7.5C114.8,16.2,127.2,23.5,137,34z M68.9,7.9c4.2-3.8,9.7-5.5,15.3-4.9    c9,1,16.3,8.3,17.3,17.3c0.6,5.9-1.3,11.7-5.4,15.9c-4.3,4.4-6.8,10-7,15.9h-3.3V33h2c2.1,0,3.9-1.7,3.9-3.9    c0-2.1-1.7-3.9-3.9-3.9c-2.1,0-3.9,1.7-3.9,3.9v2h-3.6v-2c0-2.1-1.7-3.9-3.9-3.9c-2.1,0-3.9,1.7-3.9,3.9c0,2.1,1.7,3.9,3.9,3.9h2    v19h-3.3c-0.3-6-2.7-11.6-6.8-15.6c-3.7-3.7-5.8-8.7-5.8-13.9C62.4,17,64.8,11.6,68.9,7.9z M73.7,118.8    C73.7,118.8,73.7,118.8,73.7,118.8C73.7,118.8,73.7,118.8,73.7,118.8v-8.3H82c0,0,0,0,0,0c0,0,0,0,0,0h8.3v16.6H73.7V118.8z     M82,94.8l-7.9-7.9L82,79l7.9,7.9L82,94.8z M72.7,64.3c-0.5,0-1-0.4-1-1v-1.2h20.5v1.2c0,0.5-0.4,1-1,1H72.7z M92.3,60.2H71.7V58    h20.5V60.2z M92.3,56.1H71.7v-1.2c0-0.5,0.4-1,1-1h18.6c0.5,0,1,0.4,1,1V56.1z M78.3,31.1h-2c-1.1,0-2-0.9-2-2c0-1.1,0.9-2,2-2    c1.1,0,2,0.9,2,2V31.1z M83.8,52.1h-3.6V33h3.6V52.1z M85.7,31.1v-2c0-1.1,0.9-2,2-2c1.1,0,2,0.9,2,2c0,1.1-0.9,2-2,2H85.7z     M62.9,12.6c-1.6,3-2.4,6.4-2.4,9.9c0,4.1,1.2,8,3.3,11.4H27C36.8,23.5,49.1,16.2,62.9,12.6z M24.6,19.7c0,20.8,0,75,0,95.2    c-4.4,0.3-8.2,2.8-10.3,6.3c0-1.7,0-72.1,0-90.3C14.3,25,18.9,20.2,24.6,19.7z M6.5,85.6c0-10.2,2-20,5.9-29.2v58.5    C8.5,105.6,6.5,95.8,6.5,85.6z M82,161.1c-19,0-37-7-51-19.8h102C119,154,101,161.1,82,161.1z M138.4,139.3    c-105.3,0-109.1,0-112.8,0c-6.2,0-11.3-5.1-11.3-11.3V128c0-6.2,5.1-11.2,11.3-11.2c0.5,0,1-0.4,1-1V35.9h38.6    c0.5,0.7,1.1,1.3,1.7,1.9c3.7,3.6,5.9,8.8,6.2,14.3h-0.3c-1.6,0-2.9,1.3-2.9,2.9v8.4c0,1.6,1.3,2.9,2.9,2.9H81v11l-8.7,8.7H61.9    c-0.5-5.2-4.9-9.3-10.2-9.3c-5.6,0-10.2,4.6-10.2,10.2s4.6,10.2,10.2,10.2c5.3,0,9.7-4.1,10.2-9.3h10.5l8.7,8.7v12h-8.3    c-0.5,0-1,0.4-1,1v8.3h-9.9c-0.5-5.2-4.9-9.3-10.2-9.3c-5.6,0-10.2,4.6-10.2,10.2S46.1,129,51.7,129c5.3,0,9.7-4.1,10.2-9.3h9.9    v8.3c0,0.5,0.4,1,1,1h18.5c0.5,0,1-0.4,1-1v-18.5c0-0.5-0.4-1-1-1H83v-12l8.7-8.7h10.4v8.3c0,0.5,0.4,1,1,1h8.3v11.5    c-5.2,0.5-9.3,4.9-9.3,10.2c0,5.6,4.6,10.2,10.2,10.2c5.6,0,10.2-4.6,10.2-10.2c0-5.3-4.1-9.7-9.3-10.2V97.1h8.3c0.5,0,1-0.4,1-1    V77.6c0-0.5-0.4-1-1-1h-18.5c-0.5,0-1,0.4-1,1v8.3H91.7L83,77.2v-11h8.3c1.6,0,2.9-1.3,2.9-2.9v-8.4c0-1.6-1.3-2.9-2.9-2.9H91    c0.3-5.3,2.5-10.4,6.5-14.5c0.5-0.5,1-1.1,1.4-1.6h38.6v79.9c0,0.5,0.4,1,1,1c6.2,0,11.2,5,11.3,11.2v0    C149.7,134.3,144.6,139.3,138.4,139.3z M60,86.9c0,4.6-3.7,8.3-8.3,8.3c-4.6,0-8.3-3.7-8.3-8.3c0-4.6,3.7-8.3,8.3-8.3    C56.3,78.6,60,82.3,60,86.9C60,86.9,60,86.9,60,86.9C60,86.9,60,86.9,60,86.9z M60,118.8c0,4.6-3.7,8.3-8.3,8.3    c-4.6,0-8.3-3.7-8.3-8.3c0-4.6,3.7-8.3,8.3-8.3C56.3,110.5,60,114.2,60,118.8C60,118.8,60,118.8,60,118.8    C60,118.8,60,118.8,60,118.8z M112.3,110.5C112.3,110.5,112.3,110.5,112.3,110.5C112.3,110.5,112.3,110.5,112.3,110.5    c4.6,0,8.3,3.7,8.3,8.3c0,4.6-3.7,8.3-8.3,8.3c-4.6,0-8.3-3.7-8.3-8.3C104,114.2,107.7,110.5,112.3,110.5z M104,95.2v-8.3    c0,0,0,0,0,0c0,0,0,0,0,0v-8.3h16.6v16.6H104z"></path></g></g></svg>