<?xml version="1.0" encoding="utf-8"?>
<!-- Svg Vector Icons : http://www.onlinewebfonts.com/icon -->
<!DOCTYPE svg PUBLIC "-//W3C//DTD SVG 1.1//EN" "http://www.w3.org/Graphics/SVG/1.1/DTD/svg11.dtd">
<svg version="1.1" xmlns="http://www.w3.org/2000/svg" xmlns:xlink="http://www.w3.org/1999/xlink" x="0px" y="0px" viewBox="0 0 1000 1000" enable-background="new 0 0 1000 1000" xml:space="preserve">
<metadata> Svg Vector Icons : http://www.onlinewebfonts.com/icon </metadata>
<g><path d="M990,489.3l-82.2-47.4v29.4H765.9c-8.8-137.2-117.8-247.1-254.6-257.4V41.2h-36v172.3C335.7,221,223.7,332.1,214.7,471.3H10v36h204.7c8.9,138.2,119.4,248.7,257.6,257.6v111.7h-29.4l47.4,82.2l47.4-82.2h-29.4V764.9C646.5,756,757,645.5,765.9,507.3h141.9v29.4L990,489.3z M490.3,258.8c121.3,0,220.7,93.6,229.9,212.5h-62.7V471h-19.1v0.3v36v78.1L322.6,361.3l-10,14.1l0,0l0,0l-1,1.5l1,0.7v93.7h-52.1C269.7,352.4,369.1,258.8,490.3,258.8z M490.3,719.9c-121.3,0-220.7-93.6-229.9-212.5h52.1v1h19.1V391.2l316.4,224.6l9.4-13.3l0,0l0,0l1.7-2.3l-1.7-1.2v-91.6h62.7C711,626.3,611.6,719.9,490.3,719.9z"/></g>
</svg>