<?xml version="1.0" encoding="utf-8"?>
<!-- Svg Vector Icons : http://www.onlinewebfonts.com/icon -->
<!DOCTYPE svg PUBLIC "-//W3C//DTD SVG 1.1//EN" "http://www.w3.org/Graphics/SVG/1.1/DTD/svg11.dtd">
<svg version="1.1" xmlns="http://www.w3.org/2000/svg" xmlns:xlink="http://www.w3.org/1999/xlink" x="0px" y="0px" viewBox="0 0 1000 1000" enable-background="new 0 0 1000 1000" xml:space="preserve">
<metadata> Svg Vector Icons : http://www.onlinewebfonts.com/icon </metadata>
<g><g transform="translate(0.000000,512.000000) scale(0.100000,-0.100000)"><path d="M4281.7,4991.3c-70.9-32.6-153.3-118.8-180.1-189.6c-11.5-30.7-21.1-195.4-21.1-377.4v-323.7l-837.1-5.8c-833.3-5.7-839-5.7-938.6-51.7c-126.4-55.6-273.9-212.6-323.7-337.1c-36.4-93.9-36.4-191.6-36.4-4051.4s0-3957.5,36.4-4051.4c49.8-124.5,197.3-281.6,323.7-337.1l99.6-46H5000h2595.6l99.6,46c126.4,55.5,273.9,212.6,323.7,337.1c36.4,93.9,36.4,191.6,36.4,4051.4s0,3957.5-36.4,4051.4c-49.8,124.5-197.3,281.6-323.7,337.1c-99.6,46-105.4,46-936.7,51.7l-839,5.8v323.7c0,182-9.6,346.7-21.1,377.4c-26.8,72.8-109.2,159-183.9,189.6C5626.4,5029.6,4365.9,5029.6,4281.7,4991.3z M5463.6,1562.4c321.8-82.4,676.2-275.8,875.4-478.9l84.3-86.2l132.2,122.6c72.8,69,143.7,124.5,159,124.5s40.2-19.2,55.6-42.1c26.8-44.1,298.8-1040.1,298.8-1095.7c0-76.6-63.2-70.9-538.3,57.5c-256.7,69-500,132.2-538.3,143.7c-159,42.1-157.1,90,17.2,268.2l103.4,105.4l-95.8,90c-189.6,178.1-442.5,306.5-722.1,367.8c-203,46-574.7,32.6-764.3-28.7c-544-172.4-919.5-565.1-1074.6-1120.6c-44.1-157.1-109.2-220.3-227.9-220.3c-76.6,0-99.6,9.6-155.2,65.1c-55.6,55.5-65.1,78.5-65.1,151.3c0,114.9,74.7,348.6,172.4,538.3c293.1,570.8,840.9,971.2,1471.1,1074.6C4887,1637.1,5226,1621.8,5463.6,1562.4z M6927.1-583c55.6-55.6,65.1-78.5,65.1-151.3c0-101.5-72.8-335.2-159-511.5c-107.3-216.5-205-348.6-406.1-545.9c-210.7-210.7-425.3-350.5-678.1-448.2c-703-270.1-1540.1-111.1-2072.6,394.6l-107.3,103.5l-126.4-126.4c-69-68.9-137.9-124.5-155.2-124.5c-15.3,0-42.1,19.2-57.5,44.1c-26.8,44.1-298.8,1036.3-298.8,1091.9c0,82.4,69,74.7,632.1-78.5c649.4-176.2,634.1-162.8,436.7-362.1L3879.4-1422l114.9-105.4c149.4-137.9,327.6-239.4,547.8-316.1c172.4-59.4,193.5-61.3,477-63.2c258.6,0,316.1,5.7,440.6,44.1c528.7,166.7,906.1,545.9,1063.1,1067c65.1,216.5,120.7,277.8,250.9,277.8C6848.5-517.9,6871.5-527.5,6927.1-583z"/></g></g>
</svg>