<?xml version="1.0" encoding="utf-8"?>
<!-- Svg Vector Icons : http://www.onlinewebfonts.com/icon -->
<!DOCTYPE svg PUBLIC "-//W3C//DTD SVG 1.1//EN" "http://www.w3.org/Graphics/SVG/1.1/DTD/svg11.dtd">
<svg version="1.1" xmlns="http://www.w3.org/2000/svg" xmlns:xlink="http://www.w3.org/1999/xlink" x="0px" y="0px" viewBox="0 0 1000 1000" enable-background="new 0 0 1000 1000" xml:space="preserve">
<metadata> Svg Vector Icons : http://www.onlinewebfonts.com/icon </metadata>
<g><g transform="translate(0.000000,512.000000) scale(0.100000,-0.100000)"><path d="M3646.8,4997.4c-308.2-51.7-580-250.8-719.7-524.5c-80.4-160.8-109.1-279.5-109.1-470.9c0-185.7,34.4-323.5,118.7-474.7l57.4-103.4l-650.8-648.9l-648.9-650.8l-103.4,57.4c-151.2,84.2-289,118.7-474.7,118.7c-191.4,0-310.1-28.7-470.9-109.1C257,1992.3,38.7,1538.7,126.8,1113.7C205.3,742.4,463.7,451.5,812,346.2L942.2,306l-3.8-1542.7l-5.7-1542.7l-74.6-15.3c-237.3-49.8-526.4-281.4-639.3-514.9C155.5-3436,100-3650.4,100-3767.1c0-36.4,13.4-126.3,28.7-201c166.5-788.6,1127.4-1077.6,1692-509.1c130.2,130.2,218.2,281.4,260.3,442.1l21.1,86.1l1542.7,5.7l1542.7,3.8l40.2-130.2c162.7-537.9,746.5-830.7,1286.2-647c306.3,105.3,530.2,338.8,629.7,660.4c70.8,223.9,40.2,560.8-67,748.4c-26.8,47.9-19.1,55.5,635.5,712l664.2,664.2l67-36.4c128.2-63.2,273.7-95.7,444-95.7c438.3,0,807.7,260.3,947.5,668C10018.7-855.8,9725.8-272,9188-109.3l-130.2,40.2l3.8,1542.7l5.7,1542.7l86.1,21.1c254.6,65.1,514.9,275.6,627.8,509.2c63.2,126.3,118.7,340.7,118.7,457.5c0,36.4-13.4,128.2-28.7,201c-166.5,788.6-1127.4,1077.6-1692,509.2c-130.1-130.2-235.4-310.1-266-453.6l-15.3-74.6l-1542.7-5.7l-1542.7-3.8l-40.2,130.1c-103.4,344.5-396.2,606.8-758,683.3C3866.9,5020.3,3796.1,5022.3,3646.8,4997.4z M4043,4643.3c290.9-95.7,499.6-440.2,444.1-738.8c-70.8-386.6-388.6-618.2-777.1-566.6c-222,30.6-446,214.4-528.3,432.6c-59.3,157-49.8,373.2,24.9,524.5C3363.5,4612.6,3702.3,4754.3,4043,4643.3z M9115.2,4643.3c363.7-120.6,551.3-560.8,388.6-913c-250.7-534-983.8-535.9-1234.6-1.9c-47.9,103.3-57.4,145.5-57.4,273.7c0,130.2,7.7,170.3,57.4,277.5C8426.2,4612.6,8765,4760,9115.2,4643.3z M7920.8,3732.2c11.5-47.9,49.8-137.8,82.3-199.1l59.3-111l-647-648.9l-646.9-647l-86.1,49.8c-202.9,116.8-499.6,158.9-735,105.3c-331.1-74.6-625.9-354.1-721.6-683.3l-42.1-139.7h-599.1h-599.1V1575c0,103.3-5.7,122.5-55.5,172.3c-67,65.1-147.4,72.7-214.4,19.1c-38.3-30.6-47.9-59.3-55.5-168.5l-9.6-130.1l-769.5-5.7l-769.4-3.8l-30.6,109.1c-17.2,61.3-57.4,157-90,214.4l-57.4,103.3l650.8,648.9l648.9,650.8l103.4-57.4c57.4-32.5,153.1-72.7,214.4-90c88.1-24.9,109.1-38.3,109.1-72.7c0-67,74.6-128.2,157-128.2c80.4,0,141.6,45.9,160.8,122.5c9.6,38.3,34.5,53.6,137.8,86.1c306.3,93.8,564.6,350.3,656.5,654.6l40.2,132.1l1542.7-3.8l1542.7-5.7L7920.8,3732.2z M8387.9,3133.1c42.1-26.8,132.1-67,201-88l124.4-42.1v-1537V-69.2L8652-82.6c-112.9-23-333-141.6-432.6-229.7c-130.1-116.8-237.3-281.4-289-446c-38.3-120.6-51.7-137.8-99.5-147.4c-70.8-15.3-112.9-76.6-112.9-160.8c0-78.5,63.2-155,126.3-155c36.4,0,47.9-17.2,74.7-109.1c36.4-126.3,90-239.3,153.1-323.5l44-59.3L7473-2356.5l-645-643.1l-47.9,40.2c-68.9,55.5-206.7,122.5-331.1,158.9l-109.1,30.6l3.8,769.5l5.7,769.5l130.2,9.6c109.1,7.6,137.8,17.2,168.4,55.5c53.6,67,45.9,147.4-19.1,214.4c-49.8,49.8-68.9,55.5-172.3,55.5h-116.7v599.1v601l120.6,32.5c331.1,91.9,604.9,369.4,692.9,702.5c63.2,237.3,23,555.1-95.7,761.8l-49.8,86.1l646.9,647c356,356,648.9,647,652.7,647C8309.4,3180.9,8345.8,3159.9,8387.9,3133.1z M1353.7,1934.9c212.5-78.5,398.1-306.3,426.8-526.4c51.7-388.5-179.9-706.3-566.6-777.1c-95.7-17.2-137.8-15.3-246.9,11.5c-658.4,162.7-719.7,1047-86.1,1295.8C1007.3,1988.5,1215.9,1986.6,1353.7,1934.9z M6426,1934.9c137.8-51.7,298.6-199.1,365.6-336.9c74.7-149.3,86.1-373.2,28.7-522.5c-82.3-222-254.6-375.2-478.5-432.6C5855.6,520.4,5400,974,5524.5,1458.3c63.2,243.1,237.3,428.8,470.8,499.6C6094.8,1986.6,6316.9,1977,6426,1934.9z M5210.5,1042.9c91.9-336.9,386.6-633.5,713.9-713.9l90-23v-1537v-1537l-128.2-40.2c-312-93.8-564.6-346.4-658.4-656.5l-40.2-130.1l-1540.8,3.8l-1540.8,5.7l-34.4,109.1c-17.2,59.3-55.5,147.4-84.2,197.1l-49.8,90l38.3,53.6c116.8,162.7-78.5,352.2-235.4,229.7l-49.8-40.2l-76.6,49.8c-44,26.8-134,67-202.9,88l-124.4,42.1v1533.2V302.2l132.1,42.1c164.6,53.6,331.1,160.8,436.4,279.5c128.2,147.4,168.4,224,246.9,486.2c5.7,17.2,331.1,23,1544.6,23h1538.9L5210.5,1042.9z M9186.1-455.8c505.3-248.8,499.6-968.5-9.6-1219.3c-151.2-74.6-367.5-84.2-524.5-24.9c-135.9,49.8-306.3,201-369.4,323.5c-95.7,189.5-97.6,423-5.7,612.5c49.8,101.5,189.5,250.8,285.2,300.5C8751.6-363.9,8992.7-362,9186.1-455.8z M1395.8-3154.6c511-233.5,526.4-960.9,24.9-1215.4c-268-135.9-574.2-88-784.8,124.4c-329.2,327.3-241.2,870.9,174.2,1081.4C997.7-3068.5,1196.8-3064.7,1395.8-3154.6z M6292-3099.1c160.8-28.7,275.6-93.8,388.6-216.3c134-147.4,181.8-279.4,172.3-480.4c-7.6-183.8-68.9-325.4-191.4-449.8c-327.3-325.4-878.5-237.4-1085.3,174.2c-95.7,193.3-95.7,424.9,1.9,618.3c86.1,170.3,296.7,323.5,488.1,356c51.7,7.7,97.6,15.3,103.3,17.2C6175.2-3080,6230.7-3087.6,6292-3099.1z"/><path d="M3708,2597.1c-45.9-44-47.9-57.4-47.9-283.3c0-220.1,1.9-239.3,44-275.6c63.2-59.3,118.7-68.9,185.7-34.4c80.4,42.1,95.7,93.8,95.7,325.4c0,185.7-3.8,201-49.8,256.5C3872.6,2662.2,3776.9,2668,3708,2597.1z"/><path d="M6952.3-920.9c-70.8-36.4-103.4-116.7-78.5-189.5c34.4-99.5,65.1-109.1,323.5-111c223.9,0,237.3,1.9,281.4,47.9c70.8,68.9,65.1,164.6-11.5,227.8c-55.5,45.9-70.8,49.8-262.2,49.8C7078.7-896,6981.1-905.6,6952.3-920.9z"/><path d="M3742.5,941.5c-68.9-28.7-82.3-82.3-82.3-321.6c0-262.2,17.2-302.4,135.9-321.6c55.5-9.6,78.5-1.9,124.4,36.4l55.5,47.9v243.1c0,241.2,0,243.1-53.6,289C3866.9,962.5,3815.2,970.2,3742.5,941.5z"/><path d="M3746.3,97.4c-55.5-30.6-86.1-76.6-86.1-122.5c0-32.5-23-47.9-139.7-82.3c-329.2-95.7-608.7-390.5-683.3-721.6c-53.6-235.4-11.5-534,105.3-733.1c44-78.5,45.9-88,19.1-137.8c-42.1-82.3-34.4-130.2,26.8-193.3c63.2-61.2,111-68.9,193.3-26.8c49.8,26.8,59.3,24.9,137.8-19.1c141.6-82.3,308.2-124.4,491.9-124.4c289,0,507.2,86.1,700.5,277.5c135.9,134,224,277.5,269.9,446c24.9,88,42.1,118.7,67,118.7c59.3,0,93.8,23,124.4,80.4c51.7,99.5,1.9,206.7-109.1,235.4c-40.2,9.6-55.5,32.5-84.2,120.6c-53.6,172.3-116.8,281.4-239.3,411.5c-122.5,132.1-304.3,241.2-463.2,281.4c-74.6,19.1-91.9,32.5-101.4,76.6C3954.9,84,3830.5,145.2,3746.3,97.4z M4090.8-444.3c300.5-137.8,463.2-467,384.7-779c-57.4-223.9-210.5-396.2-432.6-478.5c-149.3-57.4-373.2-45.9-522.5,28.7c-139.7,67-285.2,225.9-338.8,371.3c-55.5,147.4-47.9,392.4,19.1,520.6C3376.9-436.7,3757.8-291.2,4090.8-444.3z"/><path d="M5225.9-953.5c-49.8-51.7-57.4-68.9-47.9-130.2c21.1-120.6,59.3-137.8,331.1-137.8c210.5,0,241.2,3.8,275.6,38.3c82.3,82.3,65.1,210.5-38.3,262.2c-28.7,15.3-128.2,24.9-254.6,24.9C5285.2-896,5283.3-896,5225.9-953.5z"/><path d="M2594-2050.2c-164.6-164.6-179.9-225.9-84.2-321.6c95.7-95.7,178-68.9,352.2,112.9c91.9,97.6,109.1,126.3,109.1,185.7c0,93.8-68.9,162.7-164.6,162.7C2743.3-1910.5,2718.4-1925.8,2594-2050.2z"/><path d="M2115.5-2528.7c-147.4-147.4-162.7-189.5-118.7-289c26.8-59.3,114.8-95.7,183.8-78.5c30.6,5.7,111,70.8,183.7,143.6c111,112.9,128.2,141.6,128.2,201c0,93.8-68.9,162.7-164.6,162.7C2264.8-2389,2239.9-2404.3,2115.5-2528.7z"/></g></g>
</svg>