<svg width="150" height="175" xmlns="http://www.w3.org/2000/svg">
 <!-- Created with SVG-edit - http://svg-edit.googlecode.com/ -->
 <g>
  <title>Layer 1</title>
  <metadata transform="matrix(2.0779866077013995,0,0,1.4144473143000518,252.5815915157964,240.70784016436096) " id="svg_44">image/svg+xml</metadata>
  <g id="svg_177">
   <line stroke-width="2" id="svg_18" y2="154" x2="131" y1="109" x1="110" stroke-linecap="null" stroke-linejoin="null" stroke="#cccccc" fill="none"/>
   <line id="svg_127" y2="90" x2="41" y1="59" x1="60" stroke-linecap="null" stroke-linejoin="null" stroke-width="2" stroke="#e5e5e5" fill="none"/>
   <line id="svg_149" y2="67" x2="46" y1="31.5" x1="70.5" stroke-linecap="null" stroke-linejoin="null" stroke-width="2" stroke="#7f7f7f" fill="none"/>
   <line id="svg_148" y2="67" x2="46" y1="81.5" x1="20.5" stroke-linecap="null" stroke-linejoin="null" stroke-width="2" stroke="#7f7f7f" fill="none"/>
   <line id="svg_147" y2="104" x2="81" y1="67" x1="46" stroke-linecap="null" stroke-linejoin="null" stroke-width="2" stroke="#3f3f3f" fill="none"/>
   <line id="svg_150" y2="67" x2="46" y1="54" x1="31" stroke-linecap="null" stroke-linejoin="null" stroke-width="2" stroke="#3f3f3f" fill="none"/>
   <line id="svg_126" y2="90" x2="41" y1="81.5" x1="20.5" stroke-linecap="null" stroke-linejoin="null" stroke-width="2" stroke="#bfbfbf" fill="none"/>
   <line stroke-width="2" id="svg_16" y2="109" x2="110" y1="9" x1="110" stroke-linecap="null" stroke-linejoin="null" stroke="#cccccc" fill="none"/>
   <line id="svg_171" y2="80.25" x2="120.75" y1="42" x1="88" stroke-linecap="null" stroke-linejoin="null" stroke-width="2" stroke="#bfbfbf" fill="none"/>
   <line stroke-width="2" id="svg_15" y2="109" x2="110" y1="109" x1="10" stroke-linecap="null" stroke-linejoin="null" stroke="#cccccc" fill="none"/>
   <line id="svg_128" y2="90" x2="41" y1="109" x1="10" stroke-linecap="null" stroke-linejoin="null" stroke-width="2" stroke="#e5e5e5" fill="none"/>
   <line id="svg_125" y2="131.5" x2="70.5" y1="90" x1="41" stroke-linecap="null" stroke-linejoin="null" stroke-width="2" stroke="#bfbfbf" fill="none"/>
   <line id="svg_172" y2="42" x2="88" y1="9" x1="110" stroke-linecap="null" stroke-linejoin="null" stroke-width="2" stroke="#e5e5e5" fill="none"/>
   <line id="svg_170" y2="42" x2="88" y1="31.5" x1="70.5" stroke-linecap="null" stroke-linejoin="null" stroke-width="2" stroke="#bfbfbf" fill="none"/>
   <line id="svg_169" y2="42" x2="88" y1="59" x1="60" stroke-linecap="null" stroke-linejoin="null" stroke-width="2" stroke="#e5e5e5" fill="none"/>
   <ellipse ry="4" rx="4" id="svg_64" cy="59" cx="60" stroke-linecap="null" stroke-linejoin="null" stroke="#cccccc" fill="#cccccc"/>
   <line id="svg_106" y2="120" x2="97" y1="81.5" x1="120.5" stroke-linecap="null" stroke-linejoin="null" stroke-width="2" stroke="#7f7f7f" fill="none"/>
   <line id="svg_103" y2="120" x2="97" y1="131.5" x1="70.5" stroke-linecap="null" stroke-linejoin="null" stroke-width="2" stroke="#7f7f7f" fill="none"/>
   <line id="svg_105" y2="120.25" x2="97" y1="104" x1="81" stroke-linecap="null" stroke-linejoin="null" stroke-width="2" stroke="#3f3f3f" fill="none"/>
   <line id="svg_104" y2="154" x2="131" y1="120" x1="97" stroke-linecap="null" stroke-linejoin="null" stroke-width="2" stroke="#3f3f3f" fill="none"/>
   <line id="svg_5" y2="154" x2="31" y1="54" x1="31" stroke-linecap="null" stroke-linejoin="null" stroke-width="2" stroke="#000000" fill="none"/>
   <line stroke-width="2" id="svg_6" y2="154" x2="31" y1="109" x1="10" stroke-linecap="null" stroke-linejoin="null" stroke="#000000" fill="none"/>
   <line stroke-width="2" id="svg_7" y2="54" x2="31" y1="9" x1="10" stroke-linecap="null" stroke-linejoin="null" stroke="#000000" fill="none"/>
   <line stroke-width="2" id="svg_8" y2="109" x2="10" y1="9" x1="10" stroke-linecap="null" stroke-linejoin="null" stroke="#000000" fill="none"/>
   <line stroke-width="2" id="svg_9" y2="154" x2="131" y1="154" x1="31" stroke-linecap="null" stroke-linejoin="null" stroke="#000000" fill="none"/>
   <line stroke-width="2" id="svg_10" y2="54" x2="131" y1="54" x1="31" stroke-linecap="null" stroke-linejoin="null" stroke="#000000" fill="none"/>
   <line stroke-width="2" id="svg_11" y2="9" x2="110" y1="9" x1="10" stroke-linecap="null" stroke-linejoin="null" stroke="#000000" fill="none"/>
   <line stroke-width="2" id="svg_12" y2="54" x2="131" y1="9" x1="110" stroke-linecap="null" stroke-linejoin="null" stroke="#000000" fill="none"/>
   <line stroke-width="2" id="svg_13" y2="154" x2="131" y1="54" x1="131" stroke-linecap="null" stroke-linejoin="null" stroke="#000000" fill="none"/>
   <ellipse ry="4" rx="4" id="svg_24" cy="9" cx="110" stroke-linecap="null" stroke-linejoin="null" stroke="#000000" fill="#000000"/>
   <ellipse ry="4" rx="4" id="svg_47" cy="9" cx="10" stroke-linecap="null" stroke-linejoin="null" stroke="#000000" fill="#000000"/>
   <ellipse ry="4" rx="4" id="svg_48" cy="109" cx="10" stroke-linecap="null" stroke-linejoin="null" stroke="#000000" fill="#000000"/>
   <ellipse ry="4" rx="4" id="svg_49" cy="54" cx="31" stroke-linecap="null" stroke-linejoin="null" stroke="#000000" fill="#000000"/>
   <ellipse ry="4" rx="4" id="svg_50" cy="154" cx="31" stroke-linecap="null" stroke-linejoin="null" stroke="#000000" fill="#000000"/>
   <ellipse ry="4" rx="4" id="svg_51" cy="154" cx="131" stroke-linecap="null" stroke-linejoin="null" stroke="#000000" fill="#000000"/>
   <ellipse ry="4" rx="4" id="svg_52" cy="54" cx="131" stroke-linecap="null" stroke-linejoin="null" stroke="#000000" fill="#000000"/>
   <path fill="#000000" stroke-width="5" id="svg_28" d="m13.54718,131.745605l1.042908,-0.745605l0.725494,0.180756l-1.666412,7.162292c-0.166199,0.715515 -0.249329,1.272797 -0.249329,1.671967c0,0.30127 0.049103,0.519684 0.147339,0.655212c0.098236,0.13559 0.253174,0.203339 0.464722,0.203339c0.226807,0 0.468597,-0.092224 0.725494,-0.276733c0.256958,-0.18454 0.619781,-0.536591 1.088257,-1.056274l0.646149,0.632629c-0.680145,0.722992 -1.260162,1.23703 -1.740021,1.542084c-0.479889,0.304932 -0.99942,0.457458 -1.558716,0.457458c-0.468567,0 -0.84259,-0.154358 -1.122223,-0.463165c-0.279602,-0.308746 -0.419403,-0.719208 -0.419403,-1.231354c0,-0.414246 0.086884,-0.854828 0.260712,-1.321747l-0.147339,-0.045197c-0.725525,1.054382 -1.413208,1.826385 -2.063202,2.315887c-0.649872,0.489532 -1.337555,0.734283 -2.063049,0.734283c-0.831299,0 -1.475555,-0.312531 -1.932739,-0.937622c-0.457275,-0.625092 -0.685822,-1.502502 -0.685822,-2.632172c0,-1.295441 0.255066,-2.540009 0.765167,-3.733704c0.510101,-1.193695 1.211029,-2.135162 2.102783,-2.82428c0.891754,-0.689087 1.885468,-1.033661 2.981293,-1.033661c0.491211,0 0.950317,0.054626 1.377319,0.163757c0.427002,0.109253 0.867157,0.303131 1.320618,0.581848l0,0zm-0.997559,3.366486c0.068024,-0.308807 0.113373,-0.576141 0.136047,-0.802063c0.022675,-0.225922 0.033997,-0.470703 0.033997,-0.734283c0,-0.579987 -0.124695,-1.005493 -0.374084,-1.276642c-0.24942,-0.271088 -0.672607,-0.406647 -1.269592,-0.406647c-0.778381,0 -1.477448,0.312561 -2.097137,0.937653c-0.619659,0.625122 -1.103394,1.462982 -1.450958,2.51358c-0.347656,1.050659 -0.521515,2.099396 -0.521515,3.14624c0,0.783264 0.107697,1.368835 0.323151,1.756714c0.215302,0.387848 0.576172,0.581757 1.082581,0.581757c0.498718,0 0.988007,-0.214569 1.467957,-0.64389c0.479797,-0.42926 0.974823,-1.041229 1.484924,-1.835754c0.510162,-0.794617 0.870972,-1.711517 1.082581,-2.750854l0.102051,-0.485809z"/>
   <path fill="#000000" stroke-width="5" id="svg_27" d="m89.547211,159.745605l1.042877,-0.745605l0.725525,0.180695l-1.666351,7.162323c-0.16626,0.715485 -0.24939,1.272827 -0.249359,1.671997c-0.000031,0.30127 0.049072,0.519653 0.147308,0.655212c0.098267,0.13559 0.253174,0.2034 0.464752,0.2034c0.226746,0 0.468567,-0.092285 0.725525,-0.276794c0.256958,-0.184509 0.619659,-0.536591 1.088257,-1.056305l0.646088,0.63266c-0.680176,0.722961 -1.260193,1.23703 -1.740021,1.542053c-0.479889,0.304962 -0.999481,0.457489 -1.558716,0.457489c-0.468506,0 -0.842621,-0.154358 -1.122253,-0.463165c-0.279602,-0.308746 -0.419373,-0.719208 -0.419373,-1.231384c0,-0.414185 0.086884,-0.854767 0.260742,-1.321747l-0.1474,-0.045166c-0.725494,1.054382 -1.413208,1.826355 -2.063141,2.315887c-0.649902,0.489532 -1.337585,0.734283 -2.06311,0.734283c-0.831299,0 -1.475494,-0.312561 -1.932739,-0.937622c-0.457184,-0.625153 -0.685822,-1.502502 -0.685822,-2.632202c0,-1.29541 0.255096,-2.539978 0.765198,-3.733673c0.510132,-1.193726 1.210999,-2.135101 2.102783,-2.824249c0.891724,-0.689148 1.885559,-1.033691 2.981354,-1.033691c0.491119,0 0.950256,0.054596 1.377258,0.163757c0.426971,0.109253 0.867157,0.303192 1.320618,0.581848l0,0zm-0.997528,3.366516c0.067993,-0.308807 0.113342,-0.576172 0.136047,-0.802124c0.022614,-0.225891 0.033966,-0.470703 0.033966,-0.734314c0,-0.579895 -0.124725,-1.005402 -0.374115,-1.27655c-0.249329,-0.271088 -0.672546,-0.406677 -1.269592,-0.406677c-0.778381,0 -1.477417,0.312561 -2.097107,0.937683c-0.61969,0.625092 -1.103394,1.462921 -1.450989,2.51355c-0.347595,1.050659 -0.521484,2.099365 -0.521454,3.14624c-0.000031,0.783234 0.107697,1.368835 0.323059,1.756653c0.215424,0.387878 0.576233,0.581848 1.082611,0.581848c0.498718,0 0.988068,-0.214661 1.467987,-0.643951c0.479828,-0.429291 0.974884,-1.041229 1.484985,-1.835724c0.510101,-0.794617 0.870911,-1.711548 1.082581,-2.750885l0.10202,-0.485748z"/>
   <path fill="#000000" stroke-width="5" id="svg_26" d="m144.547211,104.745575l1.042877,-0.745575l0.725525,0.180756l-1.666412,7.162354c-0.16626,0.715454 -0.24939,1.272766 -0.249329,1.671967c-0.000061,0.301208 0.049072,0.519623 0.147339,0.655182c0.098236,0.13562 0.253204,0.203339 0.464783,0.203339c0.226715,0 0.468536,-0.092224 0.725494,-0.276733c0.256958,-0.18454 0.619659,-0.536652 1.088226,-1.056274l0.646149,0.632599c-0.680145,0.723022 -1.260193,1.237061 -1.740051,1.542023c-0.479919,0.305023 -0.999481,0.45752 -1.558655,0.45752c-0.468567,0 -0.842651,-0.154327 -1.122284,-0.463104c-0.279633,-0.308807 -0.419464,-0.719269 -0.419403,-1.231415c-0.000061,-0.414246 0.086884,-0.854736 0.260712,-1.321777l-0.1474,-0.045135c-0.725464,1.054382 -1.413208,1.826294 -2.063049,2.315857c-0.649933,0.489532 -1.337646,0.734344 -2.063141,0.734344c-0.831329,0 -1.475525,-0.312561 -1.93277,-0.937683c-0.457214,-0.625092 -0.685822,-1.502502 -0.685822,-2.632202c0,-1.295349 0.255066,-2.539917 0.765198,-3.733673c0.510101,-1.193695 1.210999,-2.135101 2.102783,-2.82428c0.891724,-0.689026 1.885498,-1.033661 2.981293,-1.033661c0.491241,0 0.950317,0.054626 1.37735,0.163818c0.42691,0.109192 0.867188,0.303162 1.320587,0.581757l0,0zm-0.997528,3.366577c0.067963,-0.308777 0.113312,-0.576172 0.136017,-0.802063c0.022644,-0.225952 0.033966,-0.470734 0.033966,-0.734344c0,-0.579895 -0.124664,-1.005463 -0.374054,-1.276581c-0.249359,-0.271149 -0.672607,-0.406647 -1.269623,-0.406647c-0.778412,0 -1.477417,0.3125 -2.097076,0.937653c-0.619751,0.625122 -1.103363,1.462952 -1.451019,2.51355c-0.347626,1.050629 -0.521423,2.099365 -0.521423,3.14621c0,0.783234 0.107666,1.368835 0.323029,1.756714c0.215393,0.387848 0.576263,0.581818 1.082581,0.581818c0.498779,0 0.988068,-0.21463 1.468018,-0.643951c0.479889,-0.429321 0.974884,-1.041199 1.484985,-1.835785c0.510071,-0.794525 0.870941,-1.711487 1.08255,-2.750824l0.102051,-0.485748z"/>
   <ellipse ry="4" rx="4" id="svg_53" cy="104" cx="81" stroke-linecap="null" stroke-linejoin="null" stroke="#000000" fill="#000000"/>
   <ellipse ry="4" rx="4" id="svg_54" cy="81.5" cx="20.5" stroke-linecap="null" stroke-linejoin="null" stroke="#000000" fill="#000000"/>
   <ellipse ry="4" rx="4" id="svg_58" cy="31.5" cx="70.5" stroke-linecap="null" stroke-linejoin="null" stroke="#000000" fill="#000000"/>
   <ellipse ry="4" rx="4" id="svg_59" cy="109" cx="110" stroke-linecap="null" stroke-linejoin="null" stroke="#cccccc" fill="#cccccc"/>
   <ellipse ry="4" rx="4" id="svg_60" cy="81.5" cx="120.5" stroke-linecap="null" stroke-linejoin="null" stroke="#7f7f7f" fill="#7f7f7f"/>
   <ellipse ry="4" rx="4" id="svg_63" cy="131.5" cx="70.5" stroke-linecap="null" stroke-linejoin="null" stroke="#7f7f7f" fill="#7f7f7f"/>
   <ellipse ry="4" rx="4" id="svg_102" cy="120" cx="97" stroke-linecap="null" stroke-linejoin="null" stroke="#3f3f3f" fill="#ffffff"/>
   <ellipse ry="4" rx="4" id="svg_124" cy="90" cx="41" stroke-linecap="null" stroke-linejoin="null" stroke="#bfbfbf" fill="#ffffff"/>
   <ellipse ry="4" rx="4" id="svg_146" cy="67" cx="46" stroke-linecap="null" stroke-linejoin="null" stroke="#3f3f3f" fill="#ffffff"/>
   <ellipse ry="4" rx="4" id="svg_168" cy="42" cx="88" stroke-linecap="null" stroke-linejoin="null" stroke="#bfbfbf" fill="#ffffff"/>
   <text xml:space="preserve" text-anchor="middle" font-family="serif" font-size="14" id="svg_174" y="136" x="101" stroke-width="0" fill="#000000">a</text>
   <text font-weight="normal" xml:space="preserve" text-anchor="middle" font-family="serif" font-size="14" id="svg_175" y="149" x="101" stroke-width="0" fill="#000000">4</text>
   <line id="svg_176" y2="138" x2="106" y1="138" x1="96" stroke-linecap="null" stroke-linejoin="null" stroke="#000000" fill="none"/>
  </g>
 </g>
</svg>