<?xml version="1.0" encoding="utf-8"?>
<!-- Svg Vector Icons : http://www.onlinewebfonts.com/icon -->
<!DOCTYPE svg PUBLIC "-//W3C//DTD SVG 1.1//EN" "http://www.w3.org/Graphics/SVG/1.1/DTD/svg11.dtd">
<svg version="1.1" xmlns="http://www.w3.org/2000/svg" xmlns:xlink="http://www.w3.org/1999/xlink" x="0px" y="0px" viewBox="0 0 1000 1000" enable-background="new 0 0 1000 1000" xml:space="preserve">
<metadata> Svg Vector Icons : http://www.onlinewebfonts.com/icon </metadata>
<g><path d="M202.2,662.2h598.1V330.7H202.2V662.2z M181.2,661.5c4,0.4,8,0.7,12.1,0.7V330.7c-4.1,0-8.1,0.3-12.1,0.7V661.5z M71.5,453.8v85.2c0,60.4,43.5,110.6,100.8,121.1V332.7C115,343.2,71.5,393.4,71.5,453.8z M809.2,662.1c4.1-0.1,8.1-0.4,12.1-1V331.7c-4-0.5-8-0.8-12.1-1V662.1z M830.2,333.2v326.5c56.1-11.5,98.3-61.1,98.3-120.6v-85.2C928.5,394.3,886.3,344.7,830.2,333.2z"/><path d="M46.6,437.7c0,0-4.5-3.9-15.4-3.9c-10.5,0-15.4,3.9-15.4,3.9v29.2H10v73.4h5.8v39.5c0,0,7.3,5.5,15.4,5.5c5.9,0,15.4-5.5,15.4-5.5v-37.1h49.7v-73.4H46.6V437.7z"/><path d="M990,466.9h-5.8v-29.2c0,0-4.9-3.9-15.4-3.9c-10.9,0-15.4,3.9-15.4,3.9v31.6h-49v73.4h49v37.1c0,0,9.5,5.5,15.4,5.5c8.1,0,15.4-5.5,15.4-5.5v-39.5h5.8V466.9z"/><path d="M138.4,311.4h21.3v383.5h-21.3V311.4z"/><path d="M215.4,310.7h21.3v383.5h-21.3V310.7z"/><path d="M765.2,311.4h21.3v383.5h-21.3V311.4L765.2,311.4z"/><path d="M843.4,310.7h21.3v383.5h-21.3V310.7z"/><path d="M330.2,281.4h-53.3v8.3h-17.8v21.1h17.8v116.9h53.3V310.8h16v-21.1h-16V281.4z"/><path d="M330.2,571.1h-53.3V688h-17.8v21.1h17.8v8.3h53.3v-8.3h16V688h-16V571.1z"/><path d="M737.4,571.1h-53.3V688h-17.8v21.1h17.8v8.3h53.3v-8.3h16V688h-16V571.1z"/><path d="M737.4,281.4h-53.3v8.3h-17.8v21.1h17.8v116.9h53.3V310.8h16v-21.1h-16V281.4z"/><path d="M391.2,662.2h-21.3v14.3h21.3v41h-21.3v14.3H464v-14.3h-21.3v-41H464v-14.3h-21.3H391.2z"/><path d="M570.5,662.2h-21.3v14.3h21.3v41h-21.3v14.3h94.1v-14.3H622v-41h21.3v-14.3H622H570.5z"/><path d="M541.8,297.5h7.4v-29.3h-7.4h-13.9h-11.2l-51.5,37.3V322h-9.1V370h91.7V322h-5.9V297.5z"/></g>
</svg>