<?xml version="1.0" encoding="iso-8859-1"?>
<!-- Generator: Adobe Illustrator 16.0.0, SVG Export Plug-In . SVG Version: 6.00 Build 0)  -->
<!DOCTYPE svg PUBLIC "-//W3C//DTD SVG 1.1//EN" "http://www.w3.org/Graphics/SVG/1.1/DTD/svg11.dtd">
<svg version="1.1" id="Capa_1" xmlns="http://www.w3.org/2000/svg" xmlns:xlink="http://www.w3.org/1999/xlink" x="0px" y="0px"
	 width="528.617px" height="528.617px" viewBox="0 0 528.617 528.617" style="enable-background:new 0 0 528.617 528.617;"
	 xml:space="preserve">
<g>
	<path d="M516.244,341.761l-6.412-30.168c-5.554-22.972-24.181-41.611-53.168-55.776c-10.323-28.345-6.51-66.104-3.146-86.842
		c0.901,3.094,1.587,6.223,1.97,9.402c0.168,1.414,1.372,2.48,2.791,2.48s2.627-1.062,2.791-2.48
		c0.364-2.892,0.522-5.313,0.522-7.614c0-61.354-90.606-111.266-201.982-111.266c-111.377,0-201.984,49.907-201.984,111.266
		c0,2.301,0.168,4.723,0.521,7.614c0.168,1.414,1.372,2.48,2.791,2.48c1.431,0,2.63-1.062,2.795-2.48
		c0.14-1.132,0.364-2.252,0.57-3.375c3.388,23.184,6.174,61.741-6.537,88.642c-20.875,12.983-34.401,28.982-38.988,47.944
		l-6.413,30.173C4.35,351.17,0,361.251,0,371.761c0,54.596,116.094,97.36,264.309,97.36s264.309-42.765,264.309-97.36
		C528.617,361.251,524.268,351.179,516.244,341.761z M168.468,437.679c-36.506,1.895-86.425-11.191-103.185-17.884
		c0.884,0.056,1.874,0.13,2.996,0.232c46.769,4.289,101.98-29.762,119.97-41.882c4.023,9.409,16.836,16.274,33.463,20.451
		c-1.72,5.479-9.304,25.389-30.016,31.419c-1.526,0.438-6.104,1.792-6.958,5.395C180.109,436.587,174.682,437.361,168.468,437.679z
		 M47.873,334.779c0.637,0.714,1.435,1.661,2.404,2.936c6.095,7.985,20.196,12.904,37.831,15.826l1.2,1.204
		c0.301-0.294,0.611-0.579,0.915-0.868c33.281,5.134,78.208,3.472,106.549,1.559c-6.219,4.499-9.927,9.94-9.927,16.335
		c0,0.163,0.046,0.299,0.051,0.457c-12.984,8.83-56.378,36.487-97.474,41.696C71.878,399.208,50.334,349.004,47.873,334.779z
		 M65.78,153.893c0.306-1.018,0.66-2.026,1.022-3.036l0.03,1.339c-0.317,0.555-0.651,1.108-0.952,1.668L65.78,153.893z
		 M356.089,291.795c53.476,7.337,98.568,20.792,127.355,37.673c-31.55,24.082-58.814,32.25-81.072,24.166
		C370.239,341.985,358.077,299.58,356.089,291.795z M264.309,392.184c-40.408,0-66.191-12.092-66.191-20.418
		c0-8.321,25.783-20.418,66.191-20.418c40.414,0,66.195,12.097,66.195,20.418C330.504,380.097,304.723,392.184,264.309,392.184z
		 M95.381,348.939c30.521-28.003,71.659-47.969,117.543-57.032c-8.468,14.627-11.747,45.28-12.76,57.657
		C169.735,351.721,127.087,353.018,95.381,348.939z M264.309,340.076c-20.097,0-40.258,2.996-55.002,8.788
		c-1.125,0.094-2.28,0.187-3.446,0.28c2.23-26.472,8.177-53.531,15.072-58.703c0.67-0.107,1.344-0.215,2.014-0.321
		c3.034-0.49,5.228-0.845,5.022-3.496c2.103-0.107,4.235-0.196,6.352-0.289l-2.084,1.591c1.591,2.087,29.482,38.294,58.934,53.984
		C282.526,340.706,273.411,340.076,264.309,340.076z M250.421,87.897c31.227,24.498,47.049,102.788,52.5,136.066
		c-9.853-0.497-19.961-0.824-30.309-0.971C273.799,177.19,257.579,113.543,250.421,87.897z M238.019,286.176
		c8.66-0.326,17.425-0.494,26.29-0.494c29.979,0,58.942,1.885,85.904,5.311c-4.4,30.551-13.917,47.94-28.277,51.684
		C291.188,350.647,246.182,296.406,238.019,286.176z M320.918,225.101c8.363-41.577,25.874-105.388,56.201-119.333
		c-4.527,13.089-12.48,41.544-12.714,80.547c-0.275,0.292-0.504,0.539-0.588,0.63l0.583,0.521
		c-0.022,13.166,0.854,27.534,3.021,42.879C352.789,228.087,337.262,226.335,320.918,225.101z M389.038,106.034
		c23.392,11.07,41.901,25.081,53.457,40.991c-28.684,1.472-52.607,17.086-66.291,28.387
		C377.87,139.889,385.762,114.976,389.038,106.034z M315.154,224.68c-2.129-0.145-4.271-0.273-6.427-0.401
		c-5.517-34.839-22.869-122.511-60.243-144.418c3.689-0.112,7.388-0.187,11.126-0.187c43.227,0,83.429,7.645,116.075,20.577
		C342.083,114.829,323.662,181.822,315.154,224.68z M236.542,80.437c0.005,0.04,0.028,0.105,0.044,0.149l-0.096,0.443
		c0.079,0.019,0.161,0.059,0.243,0.077c3.078,10.389,26.052,89.904,24.647,141.776c-0.593-0.009-1.171-0.014-1.773-0.014v0.065
		c-7.619,0.082-15.098,0.264-22.453,0.532c1.391-65.927-77.761-112.533-95.878-122.303
		C168.489,90.054,201.149,82.694,236.542,80.437z M129.409,106.412c3.517,9.698,11.848,36.436,12.909,74.33
		c-12.76-11.103-37.416-28.665-67.591-30.84C85.968,132.984,104.993,118.086,129.409,106.412z M141.921,107.942
		c22.173,12.447,91.141,56.092,89.603,115.749c-29.386,1.276-56.514,4.086-80.892,8.405
		C159.437,172.124,148.273,127.124,141.921,107.942z M202.719,288.379c-44.869,10.398-84.824,31.129-114.411,59.543
		c-16.066-2.651-28.459-6.954-33.549-13.623c-2.737-3.58-4.774-5.681-6.536-6.623C82.584,308.583,138.102,294.115,202.719,288.379z
		 M204.523,430.389c15.44-9.521,21.284-25.734,22.71-30.537c11.455,2.371,24.271,3.608,37.075,3.608
		c5.262,0,10.518-0.229,15.688-0.63c4.882,8.148,14.011,21.263,26.919,31.601c-42.967,17.081-91.092,13.604-110.906,5.479
		c-1.19-0.49-2.083-0.943-2.863-1.363C197.952,436.549,201.812,433.852,204.523,430.389z M286.325,402.241
		c25.259-2.818,47.217-10.57,53.573-22.947c6.544,13.03,22.313,38.27,49.262,47.894c-18.216,14.253-36.133,19.61-53.242,15.746
		C311.779,437.502,294.53,415.165,286.325,402.241z M341.584,369.362l-0.099,0.037c-1.312-8.798-9.786-15.672-22.201-20.54
		c1.372-0.163,2.726-0.387,4.061-0.732c14.673-3.817,24.871-18.813,30.373-44.627c4.289,12.35,13.03,31.708,28.609,44.823
		c-0.257,7.952,0.808,30.289,19.219,44.962c10.875,8.662,25.65,12.993,44.226,12.993c6.254,0,12.993-0.56,20.11-1.54
		c-26.033,18.323-50.008,24.512-71.317,18.379C358.408,412.71,341.752,369.791,341.584,369.362z M405.111,388.917
		c-13.814-10.981-16.633-27.349-17.071-36.356c3.784,2.529,7.887,4.723,12.391,6.366c6.188,2.245,12.704,3.369,19.518,3.369
		c20.246-0.009,43.208-9.89,68.536-29.565l-0.271-0.341c18.519,11.878,29.142,25.296,29.142,39.381
		c0,5.273-1.55,10.436-4.369,15.467C461.854,404.552,425.54,405.163,405.111,388.917z M379.191,232.309
		c-2.684-17.826-3.538-34.338-3.239-49.198c12.461-10.986,38.466-29.967,69.218-30.537c-2.147,9.376-12.242,57.631-2.124,97.225
		C424.825,242.497,403.376,236.656,379.191,232.309z M259.616,65.127c96.972,0,177.699,38.021,193.511,87.799l-0.364-0.091
		c-25.38-45.726-102.933-78.787-193.152-78.787c-88.152,0-164.244,31.562-191.35,75.667c-0.364,0-0.707-0.038-1.071-0.033
		C85.403,101.5,164.76,65.127,259.616,65.127z M72.279,155.456c32.455,1.472,59.355,23.016,70.139,33.031
		c0.009,14.013-0.999,29.379-3.594,45.852c-25.545,5.239-47.73,12.249-65.909,21.004C84.386,216.781,75.056,168.083,72.279,155.456z
		 M11.271,371.766c0-14.533,11.25-28.353,30.863-40.515c-1.089,12.293,21.462,63.659,39.853,83.321
		c-4.464,0.257-8.87,0.247-13.182-0.154c-9.93-0.915-13.39-0.252-14.226,2.744c-0.217,0.775-0.14,1.456,0.094,2.091
		C27.379,405.541,11.271,389.16,11.271,371.766z M264.309,457.859c-67.162,0-129.164-9.465-175.016-24.591
		c20.918,5.381,48.174,10.263,71.395,10.263c9.593,0,18.454-0.868,25.923-2.838c0.301,0.312,0.53,0.616,0.917,0.929
		c6.768,5.466,27.461,10.604,53.377,10.604c21.812,0,47.324-3.692,71.332-13.866c6.655,4.518,14.104,8.186,22.411,10.062
		c4.069,0.915,8.167,1.373,12.283,1.373c15.514,0,31.373-6.487,47.301-19.378l-1.638-2.025c0.131,0.037,0.247,0.098,0.373,0.135
		c5.857,1.685,11.873,2.53,18.043,2.53c19.682,0,40.936-8.564,63.431-25.59l-1.396-1.839c10.627-1.886,22.117-4.751,34.48-8.653
		C476.91,430.781,377.954,457.859,264.309,457.859z"/>
</g>
<g>
</g>
<g>
</g>
<g>
</g>
<g>
</g>
<g>
</g>
<g>
</g>
<g>
</g>
<g>
</g>
<g>
</g>
<g>
</g>
<g>
</g>
<g>
</g>
<g>
</g>
<g>
</g>
<g>
</g>
</svg>
